<mxfile host="app.diagrams.net" modified="2024-01-18T15:21:43.190Z" agent="Mozilla/5.0 (Windows NT 10.0; Win64; x64; rv:121.0) Gecko/20100101 Firefox/121.0" etag="t8oer552LwN3h66K1yWH" version="22.1.21" type="github">
  <diagram name="Seite-1" id="8oX-7nu69xEVpHodJw5y">
    <mxGraphModel dx="1582" dy="837" grid="1" gridSize="10" guides="1" tooltips="1" connect="1" arrows="1" fold="1" page="1" pageScale="1" pageWidth="1100" pageHeight="850" math="0" shadow="0">
      <root>
        <mxCell id="0" />
        <mxCell id="1" parent="0" />
        <mxCell id="xWyKYA-3_11842NbvKt_-10" value="Benutzerdefinierte Geodaten" style="shape=cylinder3;whiteSpace=wrap;html=1;boundedLbl=1;backgroundOutline=1;size=15;fillColor=#f5f5f5;fontColor=#333333;strokeColor=#666666;" parent="1" vertex="1">
          <mxGeometry x="500" y="140" width="140" height="70" as="geometry" />
        </mxCell>
        <mxCell id="xWyKYA-3_11842NbvKt_-12" style="edgeStyle=orthogonalEdgeStyle;rounded=0;orthogonalLoop=1;jettySize=auto;html=1;exitX=1;exitY=0.5;exitDx=0;exitDy=0;entryX=0;entryY=0.25;entryDx=0;entryDy=0;startArrow=classic;startFill=1;" parent="1" source="xWyKYA-3_11842NbvKt_-1" target="xWyKYA-3_11842NbvKt_-5" edge="1">
          <mxGeometry relative="1" as="geometry" />
        </mxCell>
        <mxCell id="xWyKYA-3_11842NbvKt_-1" value="SoRa Private API" style="rounded=0;whiteSpace=wrap;html=1;fillColor=#f5f5f5;fontColor=#333333;strokeColor=#666666;" parent="1" vertex="1">
          <mxGeometry x="20" y="35" width="120" height="40" as="geometry" />
        </mxCell>
        <mxCell id="xWyKYA-3_11842NbvKt_-14" style="edgeStyle=orthogonalEdgeStyle;rounded=0;orthogonalLoop=1;jettySize=auto;html=1;exitX=1;exitY=0.5;exitDx=0;exitDy=0;entryX=0;entryY=0.5;entryDx=0;entryDy=0;startArrow=classic;startFill=1;" parent="1" source="xWyKYA-3_11842NbvKt_-2" target="xWyKYA-3_11842NbvKt_-5" edge="1">
          <mxGeometry relative="1" as="geometry" />
        </mxCell>
        <mxCell id="xWyKYA-3_11842NbvKt_-2" value="SoRa Public API" style="rounded=0;whiteSpace=wrap;html=1;fillColor=#f5f5f5;fontColor=#333333;strokeColor=#666666;" parent="1" vertex="1">
          <mxGeometry x="20" y="95" width="120" height="40" as="geometry" />
        </mxCell>
        <mxCell id="xWyKYA-3_11842NbvKt_-3" value="SoRa User API" style="rounded=0;whiteSpace=wrap;html=1;fillColor=#f5f5f5;fontColor=#333333;strokeColor=#666666;" parent="1" vertex="1">
          <mxGeometry x="20" y="155" width="120" height="40" as="geometry" />
        </mxCell>
        <mxCell id="xWyKYA-3_11842NbvKt_-4" value="Open Route Service API" style="rounded=0;whiteSpace=wrap;html=1;fillColor=#f5f5f5;fontColor=#333333;strokeColor=#666666;" parent="1" vertex="1">
          <mxGeometry x="20" y="260" width="120" height="40" as="geometry" />
        </mxCell>
        <mxCell id="xWyKYA-3_11842NbvKt_-15" style="edgeStyle=orthogonalEdgeStyle;rounded=0;orthogonalLoop=1;jettySize=auto;html=1;exitX=0;exitY=0.75;exitDx=0;exitDy=0;entryX=1;entryY=0.5;entryDx=0;entryDy=0;startArrow=classic;startFill=1;" parent="1" source="xWyKYA-3_11842NbvKt_-5" target="xWyKYA-3_11842NbvKt_-3" edge="1">
          <mxGeometry relative="1" as="geometry" />
        </mxCell>
        <mxCell id="xWyKYA-3_11842NbvKt_-16" style="edgeStyle=orthogonalEdgeStyle;rounded=0;orthogonalLoop=1;jettySize=auto;html=1;exitX=1;exitY=0.5;exitDx=0;exitDy=0;entryX=0;entryY=0.5;entryDx=0;entryDy=0;startArrow=classic;startFill=1;" parent="1" source="xWyKYA-3_11842NbvKt_-5" target="xWyKYA-3_11842NbvKt_-7" edge="1">
          <mxGeometry relative="1" as="geometry" />
        </mxCell>
        <mxCell id="xWyKYA-3_11842NbvKt_-20" style="edgeStyle=orthogonalEdgeStyle;rounded=0;orthogonalLoop=1;jettySize=auto;html=1;exitX=0.5;exitY=1;exitDx=0;exitDy=0;entryX=1;entryY=0.5;entryDx=0;entryDy=0;startArrow=classic;startFill=1;" parent="1" target="xWyKYA-3_11842NbvKt_-4" edge="1">
          <mxGeometry relative="1" as="geometry">
            <mxPoint x="210" y="135" as="sourcePoint" />
            <mxPoint x="210" y="255" as="targetPoint" />
            <Array as="points">
              <mxPoint x="210" y="280" />
            </Array>
          </mxGeometry>
        </mxCell>
        <mxCell id="xWyKYA-3_11842NbvKt_-5" value="Geolinking REST API" style="rounded=0;whiteSpace=wrap;html=1;fillColor=#dae8fc;strokeColor=#6c8ebf;" parent="1" vertex="1">
          <mxGeometry x="180" y="95" width="120" height="40" as="geometry" />
        </mxCell>
        <mxCell id="xWyKYA-3_11842NbvKt_-7" value="Geolinking WPS" style="rounded=0;whiteSpace=wrap;html=1;fillColor=#dae8fc;strokeColor=#6c8ebf;" parent="1" vertex="1">
          <mxGeometry x="340" y="95" width="120" height="40" as="geometry" />
        </mxCell>
        <mxCell id="xWyKYA-3_11842NbvKt_-9" value="Geobasis- / Geofachdaten" style="shape=cylinder3;whiteSpace=wrap;html=1;boundedLbl=1;backgroundOutline=1;size=15;fillColor=#f5f5f5;fontColor=#333333;strokeColor=#666666;" parent="1" vertex="1">
          <mxGeometry x="500" y="80" width="140" height="70" as="geometry" />
        </mxCell>
        <mxCell id="xWyKYA-3_11842NbvKt_-17" style="edgeStyle=orthogonalEdgeStyle;rounded=0;orthogonalLoop=1;jettySize=auto;html=1;exitX=0;exitY=0.5;exitDx=0;exitDy=0;exitPerimeter=0;entryX=1;entryY=0.25;entryDx=0;entryDy=0;startArrow=classic;startFill=1;" parent="1" source="xWyKYA-3_11842NbvKt_-8" target="xWyKYA-3_11842NbvKt_-7" edge="1">
          <mxGeometry relative="1" as="geometry" />
        </mxCell>
        <mxCell id="xWyKYA-3_11842NbvKt_-8" value="IÖR Monitor" style="shape=cylinder3;whiteSpace=wrap;html=1;boundedLbl=1;backgroundOutline=1;size=15;fillColor=#f5f5f5;fontColor=#333333;strokeColor=#666666;" parent="1" vertex="1">
          <mxGeometry x="500" y="20" width="140" height="70" as="geometry" />
        </mxCell>
        <mxCell id="xWyKYA-3_11842NbvKt_-18" style="edgeStyle=orthogonalEdgeStyle;rounded=0;orthogonalLoop=1;jettySize=auto;html=1;exitX=1;exitY=0.5;exitDx=0;exitDy=0;entryX=0;entryY=0.5;entryDx=0;entryDy=0;entryPerimeter=0;startArrow=classic;startFill=1;" parent="1" source="xWyKYA-3_11842NbvKt_-7" target="xWyKYA-3_11842NbvKt_-9" edge="1">
          <mxGeometry relative="1" as="geometry" />
        </mxCell>
        <mxCell id="xWyKYA-3_11842NbvKt_-19" style="edgeStyle=orthogonalEdgeStyle;rounded=0;orthogonalLoop=1;jettySize=auto;html=1;exitX=1;exitY=0.75;exitDx=0;exitDy=0;entryX=0;entryY=0.5;entryDx=0;entryDy=0;entryPerimeter=0;startArrow=classic;startFill=1;" parent="1" source="xWyKYA-3_11842NbvKt_-7" target="xWyKYA-3_11842NbvKt_-10" edge="1">
          <mxGeometry relative="1" as="geometry" />
        </mxCell>
        <mxCell id="RWMj_lE9c-KkNywdO_du-1" value="PostgreSQL/PostGIS Datenbank" style="shape=cylinder3;whiteSpace=wrap;html=1;boundedLbl=1;backgroundOutline=1;size=15;fillColor=#f5f5f5;fontColor=#333333;strokeColor=#666666;" vertex="1" parent="1">
          <mxGeometry x="500" y="240" width="140" height="70" as="geometry" />
        </mxCell>
        <mxCell id="RWMj_lE9c-KkNywdO_du-2" value="" style="shape=curlyBracket;whiteSpace=wrap;html=1;rounded=1;flipH=1;labelPosition=right;verticalLabelPosition=middle;align=left;verticalAlign=middle;" vertex="1" parent="1">
          <mxGeometry x="670" y="20" width="20" height="190" as="geometry" />
        </mxCell>
        <mxCell id="RWMj_lE9c-KkNywdO_du-3" value="" style="shape=curlyBracket;whiteSpace=wrap;html=1;rounded=1;flipH=1;labelPosition=right;verticalLabelPosition=middle;align=left;verticalAlign=middle;" vertex="1" parent="1">
          <mxGeometry x="670" y="240" width="20" height="70" as="geometry" />
        </mxCell>
        <mxCell id="RWMj_lE9c-KkNywdO_du-4" value="Geodaten / Indikatoren" style="text;html=1;strokeColor=none;fillColor=none;align=center;verticalAlign=middle;whiteSpace=wrap;rounded=0;" vertex="1" parent="1">
          <mxGeometry x="700" y="100" width="130" height="30" as="geometry" />
        </mxCell>
        <mxCell id="RWMj_lE9c-KkNywdO_du-5" value="&lt;div&gt;Verwaltung Metadaten,&lt;/div&gt;&lt;div&gt;Verwaltung und Durchführung von Anfrage-Jobs&lt;/div&gt;" style="text;html=1;strokeColor=none;fillColor=none;align=center;verticalAlign=middle;whiteSpace=wrap;rounded=0;" vertex="1" parent="1">
          <mxGeometry x="710" y="260" width="180" height="30" as="geometry" />
        </mxCell>
        <mxCell id="RWMj_lE9c-KkNywdO_du-7" value="" style="endArrow=classic;startArrow=classic;html=1;rounded=0;entryX=0.75;entryY=1;entryDx=0;entryDy=0;exitX=-0.019;exitY=0.586;exitDx=0;exitDy=0;exitPerimeter=0;" edge="1" parent="1" source="RWMj_lE9c-KkNywdO_du-1" target="xWyKYA-3_11842NbvKt_-5">
          <mxGeometry width="50" height="50" relative="1" as="geometry">
            <mxPoint x="250" y="245" as="sourcePoint" />
            <mxPoint x="270" y="140" as="targetPoint" />
            <Array as="points">
              <mxPoint x="270" y="281" />
            </Array>
          </mxGeometry>
        </mxCell>
        <mxCell id="RWMj_lE9c-KkNywdO_du-8" value="Benutzerdefinierte Geodaten" style="shape=cylinder3;whiteSpace=wrap;html=1;boundedLbl=1;backgroundOutline=1;size=15;fillColor=#f5f5f5;fontColor=#333333;strokeColor=#666666;" vertex="1" parent="1">
          <mxGeometry x="500" y="480" width="140" height="70" as="geometry" />
        </mxCell>
        <mxCell id="RWMj_lE9c-KkNywdO_du-9" style="edgeStyle=orthogonalEdgeStyle;rounded=0;orthogonalLoop=1;jettySize=auto;html=1;exitX=1;exitY=0.5;exitDx=0;exitDy=0;entryX=0;entryY=0.25;entryDx=0;entryDy=0;startArrow=classic;startFill=1;" edge="1" parent="1" source="RWMj_lE9c-KkNywdO_du-10" target="RWMj_lE9c-KkNywdO_du-18">
          <mxGeometry relative="1" as="geometry" />
        </mxCell>
        <mxCell id="RWMj_lE9c-KkNywdO_du-10" value="SoRa Private API" style="rounded=0;whiteSpace=wrap;html=1;fillColor=#f5f5f5;fontColor=#333333;strokeColor=#666666;" vertex="1" parent="1">
          <mxGeometry x="20" y="375" width="120" height="40" as="geometry" />
        </mxCell>
        <mxCell id="RWMj_lE9c-KkNywdO_du-11" style="edgeStyle=orthogonalEdgeStyle;rounded=0;orthogonalLoop=1;jettySize=auto;html=1;exitX=1;exitY=0.5;exitDx=0;exitDy=0;entryX=0;entryY=0.5;entryDx=0;entryDy=0;startArrow=classic;startFill=1;" edge="1" parent="1" source="RWMj_lE9c-KkNywdO_du-12" target="RWMj_lE9c-KkNywdO_du-18">
          <mxGeometry relative="1" as="geometry" />
        </mxCell>
        <mxCell id="RWMj_lE9c-KkNywdO_du-12" value="SoRa Public API" style="rounded=0;whiteSpace=wrap;html=1;fillColor=#f5f5f5;fontColor=#333333;strokeColor=#666666;" vertex="1" parent="1">
          <mxGeometry x="20" y="435" width="120" height="40" as="geometry" />
        </mxCell>
        <mxCell id="RWMj_lE9c-KkNywdO_du-13" value="SoRa User API" style="rounded=0;whiteSpace=wrap;html=1;fillColor=#f5f5f5;fontColor=#333333;strokeColor=#666666;" vertex="1" parent="1">
          <mxGeometry x="20" y="495" width="120" height="40" as="geometry" />
        </mxCell>
        <mxCell id="RWMj_lE9c-KkNywdO_du-14" value="Open Route Service API" style="rounded=0;whiteSpace=wrap;html=1;fillColor=#f5f5f5;fontColor=#333333;strokeColor=#666666;" vertex="1" parent="1">
          <mxGeometry x="20" y="600" width="120" height="40" as="geometry" />
        </mxCell>
        <mxCell id="RWMj_lE9c-KkNywdO_du-15" style="edgeStyle=orthogonalEdgeStyle;rounded=0;orthogonalLoop=1;jettySize=auto;html=1;exitX=0;exitY=0.75;exitDx=0;exitDy=0;entryX=1;entryY=0.5;entryDx=0;entryDy=0;startArrow=classic;startFill=1;" edge="1" parent="1" source="RWMj_lE9c-KkNywdO_du-18" target="RWMj_lE9c-KkNywdO_du-13">
          <mxGeometry relative="1" as="geometry" />
        </mxCell>
        <mxCell id="RWMj_lE9c-KkNywdO_du-18" value="Geolinking REST API" style="rounded=0;whiteSpace=wrap;html=1;fillColor=#dae8fc;strokeColor=#6c8ebf;" vertex="1" parent="1">
          <mxGeometry x="270" y="435" width="120" height="40" as="geometry" />
        </mxCell>
        <mxCell id="RWMj_lE9c-KkNywdO_du-20" value="Geobasis- / Geofachdaten" style="shape=cylinder3;whiteSpace=wrap;html=1;boundedLbl=1;backgroundOutline=1;size=15;fillColor=#f5f5f5;fontColor=#333333;strokeColor=#666666;" vertex="1" parent="1">
          <mxGeometry x="500" y="420" width="140" height="70" as="geometry" />
        </mxCell>
        <mxCell id="RWMj_lE9c-KkNywdO_du-22" value="IÖR Monitor" style="shape=cylinder3;whiteSpace=wrap;html=1;boundedLbl=1;backgroundOutline=1;size=15;fillColor=#f5f5f5;fontColor=#333333;strokeColor=#666666;" vertex="1" parent="1">
          <mxGeometry x="500" y="360" width="140" height="70" as="geometry" />
        </mxCell>
        <mxCell id="RWMj_lE9c-KkNywdO_du-23" style="edgeStyle=orthogonalEdgeStyle;rounded=0;orthogonalLoop=1;jettySize=auto;html=1;exitX=1;exitY=0.5;exitDx=0;exitDy=0;entryX=0;entryY=0.5;entryDx=0;entryDy=0;entryPerimeter=0;startArrow=classic;startFill=1;" edge="1" parent="1" source="RWMj_lE9c-KkNywdO_du-18" target="RWMj_lE9c-KkNywdO_du-20">
          <mxGeometry relative="1" as="geometry">
            <mxPoint x="460" y="455" as="sourcePoint" />
          </mxGeometry>
        </mxCell>
        <mxCell id="RWMj_lE9c-KkNywdO_du-25" value="PostgreSQL/PostGIS Datenbank" style="shape=cylinder3;whiteSpace=wrap;html=1;boundedLbl=1;backgroundOutline=1;size=15;fillColor=#f5f5f5;fontColor=#333333;strokeColor=#666666;" vertex="1" parent="1">
          <mxGeometry x="500" y="580" width="140" height="70" as="geometry" />
        </mxCell>
        <mxCell id="RWMj_lE9c-KkNywdO_du-26" value="" style="shape=curlyBracket;whiteSpace=wrap;html=1;rounded=1;flipH=1;labelPosition=right;verticalLabelPosition=middle;align=left;verticalAlign=middle;" vertex="1" parent="1">
          <mxGeometry x="670" y="360" width="20" height="190" as="geometry" />
        </mxCell>
        <mxCell id="RWMj_lE9c-KkNywdO_du-27" value="" style="shape=curlyBracket;whiteSpace=wrap;html=1;rounded=1;flipH=1;labelPosition=right;verticalLabelPosition=middle;align=left;verticalAlign=middle;" vertex="1" parent="1">
          <mxGeometry x="670" y="580" width="20" height="70" as="geometry" />
        </mxCell>
        <mxCell id="RWMj_lE9c-KkNywdO_du-28" value="Geodaten / Indikatoren" style="text;html=1;strokeColor=none;fillColor=none;align=center;verticalAlign=middle;whiteSpace=wrap;rounded=0;" vertex="1" parent="1">
          <mxGeometry x="700" y="440" width="130" height="30" as="geometry" />
        </mxCell>
        <mxCell id="RWMj_lE9c-KkNywdO_du-29" value="" style="endArrow=classic;startArrow=classic;html=1;rounded=0;entryX=0.75;entryY=1;entryDx=0;entryDy=0;exitX=-0.019;exitY=0.586;exitDx=0;exitDy=0;exitPerimeter=0;" edge="1" parent="1" source="RWMj_lE9c-KkNywdO_du-25" target="RWMj_lE9c-KkNywdO_du-18">
          <mxGeometry width="50" height="50" relative="1" as="geometry">
            <mxPoint x="250" y="585" as="sourcePoint" />
            <mxPoint x="270" y="480" as="targetPoint" />
            <Array as="points">
              <mxPoint x="360" y="621" />
            </Array>
          </mxGeometry>
        </mxCell>
        <mxCell id="RWMj_lE9c-KkNywdO_du-30" value="&lt;div&gt;Verwaltung Metadaten,&lt;/div&gt;&lt;div&gt;Verwaltung und Durchführung von Anfrage-Jobs&lt;/div&gt;" style="text;html=1;strokeColor=none;fillColor=none;align=center;verticalAlign=middle;whiteSpace=wrap;rounded=0;" vertex="1" parent="1">
          <mxGeometry x="710" y="600" width="180" height="30" as="geometry" />
        </mxCell>
        <mxCell id="RWMj_lE9c-KkNywdO_du-31" value="" style="endArrow=classic;startArrow=classic;html=1;rounded=0;entryX=0.25;entryY=1;entryDx=0;entryDy=0;" edge="1" parent="1" target="RWMj_lE9c-KkNywdO_du-18">
          <mxGeometry width="50" height="50" relative="1" as="geometry">
            <mxPoint x="140" y="620" as="sourcePoint" />
            <mxPoint x="190" y="570" as="targetPoint" />
            <Array as="points">
              <mxPoint x="300" y="620" />
            </Array>
          </mxGeometry>
        </mxCell>
        <mxCell id="RWMj_lE9c-KkNywdO_du-32" value="" style="endArrow=classic;startArrow=classic;html=1;rounded=0;exitX=1;exitY=0.75;exitDx=0;exitDy=0;entryX=-0.005;entryY=0.586;entryDx=0;entryDy=0;entryPerimeter=0;" edge="1" parent="1" source="RWMj_lE9c-KkNywdO_du-18" target="RWMj_lE9c-KkNywdO_du-8">
          <mxGeometry width="50" height="50" relative="1" as="geometry">
            <mxPoint x="390" y="460" as="sourcePoint" />
            <mxPoint x="480" y="540" as="targetPoint" />
            <Array as="points">
              <mxPoint x="440" y="465" />
              <mxPoint x="440" y="520" />
            </Array>
          </mxGeometry>
        </mxCell>
        <mxCell id="RWMj_lE9c-KkNywdO_du-33" value="" style="endArrow=classic;startArrow=classic;html=1;rounded=0;exitX=1;exitY=0.25;exitDx=0;exitDy=0;entryX=0;entryY=0.571;entryDx=0;entryDy=0;entryPerimeter=0;" edge="1" parent="1" source="RWMj_lE9c-KkNywdO_du-18" target="RWMj_lE9c-KkNywdO_du-22">
          <mxGeometry width="50" height="50" relative="1" as="geometry">
            <mxPoint x="390" y="450" as="sourcePoint" />
            <mxPoint x="460" y="350" as="targetPoint" />
            <Array as="points">
              <mxPoint x="440" y="445" />
              <mxPoint x="440" y="400" />
            </Array>
          </mxGeometry>
        </mxCell>
        <mxCell id="RWMj_lE9c-KkNywdO_du-34" value="Variante mit WPS" style="text;html=1;strokeColor=none;fillColor=none;align=center;verticalAlign=middle;whiteSpace=wrap;rounded=0;fontStyle=1" vertex="1" parent="1">
          <mxGeometry x="235" width="190" height="30" as="geometry" />
        </mxCell>
        <mxCell id="RWMj_lE9c-KkNywdO_du-35" value="Variante ohne WPS" style="text;html=1;strokeColor=none;fillColor=none;align=center;verticalAlign=middle;whiteSpace=wrap;rounded=0;fontStyle=1" vertex="1" parent="1">
          <mxGeometry x="235" y="340" width="190" height="30" as="geometry" />
        </mxCell>
        <mxCell id="RWMj_lE9c-KkNywdO_du-36" value="" style="line;strokeWidth=4;html=1;perimeter=backbonePerimeter;points=[];outlineConnect=0;" vertex="1" parent="1">
          <mxGeometry x="10" y="330" width="880" height="10" as="geometry" />
        </mxCell>
      </root>
    </mxGraphModel>
  </diagram>
</mxfile>
